<?xml version="1.0" encoding="utf-8"?>
<!-- Generator: Adobe Illustrator 23.0.1, SVG Export Plug-In . SVG Version: 6.00 Build 0)  -->
<svg version="1.1" id="Capa_1" xmlns="http://www.w3.org/2000/svg" xmlns:xlink="http://www.w3.org/1999/xlink" x="0px" y="0px"
	 viewBox="0 0 16 16" style="enable-background:new 0 0 16 16;" xml:space="preserve">
<style type="text/css">
	.st0{fill:#FFFFFF;}
</style>
<path class="st0" d="M6.7,13.3C6.7,13.3,6.7,13.3,6.7,13.3c0.3,0,0.5-0.2,0.5-0.5L6.9,4.2c0-0.2-0.2-0.4-0.5-0.4c0,0,0,0,0,0
	C6.2,3.7,6,4,6,4.2l0.2,8.7C6.2,13.1,6.4,13.3,6.7,13.3z M9.3,13.3c0.2,0,0.4-0.2,0.5-0.4L10,4.2C10,4,9.8,3.7,9.5,3.7c0,0,0,0,0,0
	c-0.2,0-0.4,0.2-0.5,0.4l-0.2,8.7C8.9,13.1,9.1,13.3,9.3,13.3C9.3,13.3,9.3,13.3,9.3,13.3z M12.9,3.7c-0.2,0-0.5,0.2-0.5,0.4
	l-0.4,10.2c0,0.3-0.2,0.6-0.6,0.6h-7c-0.3,0-0.6-0.2-0.6-0.6L3.6,4.2c0-0.2-0.2-0.4-0.5-0.4C2.9,3.7,2.7,4,2.7,4.2L3,14.4
	c0,0.8,0.7,1.5,1.5,1.5h7c0.8,0,1.5-0.7,1.5-1.4l0.4-10.2C13.3,4,13.1,3.7,12.9,3.7z M13.8,1.9H11V0.6c0-0.3-0.2-0.5-0.5-0.5H5.4
	C5.2,0.2,5,0.4,5,0.6v1.3H2.2C2,1.9,1.8,2.1,1.8,2.4S2,2.8,2.2,2.8h11.6c0.3,0,0.5-0.2,0.5-0.5S14,1.9,13.8,1.9z M10.1,1.9H5.9V1.1
	h4.3C10.1,1.1,10.1,1.9,10.1,1.9z"/>
</svg>
